HIERARCHY
ROOT mixamorig:Hips
{
	OFFSET -0.000008 104.274872 1.554316
	CHANNELS 6 Xposition Yposition Zposition Xrotation Yrotation Zrotation
	JOINT mixamorig:Spine
	{
		OFFSET -0.000005 10.181595 0.131519
		CHANNELS 6 Xposition Yposition Zposition Xrotation Yrotation Zrotation
		JOINT mixamorig:Spine1
		{
			OFFSET -0.000000 9.893959 -1.470707
			CHANNELS 6 Xposition Yposition Zposition Xrotation Yrotation Zrotation
			JOINT mixamorig:Spine2
			{
				OFFSET -0.000000 9.220757 -1.370641
				CHANNELS 6 Xposition Yposition Zposition Xrotation Yrotation Zrotation
				JOINT mixamorig:Neck
				{
					OFFSET 0.000001 16.740417 -2.049036
					CHANNELS 6 Xposition Yposition Zposition Xrotation Yrotation Zrotation
					JOINT mixamorig:Head
					{
						OFFSET 0.000000 9.617874 1.685006
						CHANNELS 6 Xposition Yposition Zposition Xrotation Yrotation Zrotation
						JOINT mixamorig:HeadTop_End
						{
							OFFSET 0.000002 22.037354 7.501101
							CHANNELS 6 Xposition Yposition Zposition Xrotation Yrotation Zrotation
							End Site
							{
								OFFSET 0.000168 2310.654297 -282.823242
							}
						}
					}
				}
				JOINT mixamorig:RightShoulder
				{
					OFFSET -4.569970 11.014908 -2.160885
					CHANNELS 6 Xposition Yposition Zposition Xrotation Yrotation Zrotation
					JOINT mixamorig:RightArm
					{
						OFFSET -10.592851 -0.524811 -2.232101
						CHANNELS 6 Xposition Yposition Zposition Xrotation Yrotation Zrotation
						JOINT mixamorig:RightForeArm
						{
							OFFSET -27.841511 0.000031 -0.000004
							CHANNELS 6 Xposition Yposition Zposition Xrotation Yrotation Zrotation
							JOINT mixamorig:RightHand
							{
								OFFSET -28.328831 -0.000015 0.000015
								CHANNELS 6 Xposition Yposition Zposition Xrotation Yrotation Zrotation
								JOINT mixamorig:RightHandThumb1
								{
									OFFSET -2.464806 -1.573990 2.681852
									CHANNELS 6 Xposition Yposition Zposition Xrotation Yrotation Zrotation
									JOINT mixamorig:RightHandThumb2
									{
										OFFSET -3.215179 -1.872803 1.924282
										CHANNELS 6 Xposition Yposition Zposition Xrotation Yrotation Zrotation
										JOINT mixamorig:RightHandThumb3
										{
											OFFSET -2.654831 -1.527969 1.512609
											CHANNELS 6 Xposition Yposition Zposition Xrotation Yrotation Zrotation
											JOINT mixamorig:RightHandThumb4
											{
												OFFSET -2.018814 -1.152008 1.108052
												CHANNELS 6 Xposition Yposition Zposition Xrotation Yrotation Zrotation
												End Site
												{
													OFFSET -188.809540 -114.533607 132.431396
												}
											}
										}
									}
								}
								JOINT mixamorig:RightHandIndex1
								{
									OFFSET -9.108284 -0.517868 2.259835
									CHANNELS 6 Xposition Yposition Zposition Xrotation Yrotation Zrotation
									JOINT mixamorig:RightHandIndex2
									{
										OFFSET -3.699989 0.000000 0.001215
										CHANNELS 6 Xposition Yposition Zposition Xrotation Yrotation Zrotation
										JOINT mixamorig:RightHandIndex3
										{
											OFFSET -2.850006 0.000031 -0.000522
											CHANNELS 6 Xposition Yposition Zposition Xrotation Yrotation Zrotation
											JOINT mixamorig:RightHandIndex4
											{
												OFFSET -2.772186 -0.000015 -0.000020
												CHANNELS 6 Xposition Yposition Zposition Xrotation Yrotation Zrotation
												End Site
												{
													OFFSET -277.218445 0.000000 -0.050231
												}
											}
										}
									}
								}
								JOINT mixamorig:RightHandMiddle1
								{
									OFFSET -9.532516 -0.000031 -0.000023
									CHANNELS 6 Xposition Yposition Zposition Xrotation Yrotation Zrotation
									JOINT mixamorig:RightHandMiddle2
									{
										OFFSET -3.700005 -0.000015 0.003713
										CHANNELS 6 Xposition Yposition Zposition Xrotation Yrotation Zrotation
										JOINT mixamorig:RightHandMiddle3
										{
											OFFSET -2.949974 0.000015 -0.002054
											CHANNELS 6 Xposition Yposition Zposition Xrotation Yrotation Zrotation
											JOINT mixamorig:RightHandMiddle4
											{
												OFFSET -2.946640 0.000000 -0.000156
												CHANNELS 6 Xposition Yposition Zposition Xrotation Yrotation Zrotation
												End Site
												{
													OFFSET -294.664337 0.000000 -0.113670
												}
											}
										}
									}
								}
								JOINT mixamorig:RightHandRing1
								{
									OFFSET -9.103600 -0.043076 -1.865134
									CHANNELS 6 Xposition Yposition Zposition Xrotation Yrotation Zrotation
									JOINT mixamorig:RightHandRing2
									{
										OFFSET -3.379288 0.000000 -0.001055
										CHANNELS 6 Xposition Yposition Zposition Xrotation Yrotation Zrotation
										JOINT mixamorig:RightHandRing3
										{
											OFFSET -2.889687 -0.000015 0.000379
											CHANNELS 6 Xposition Yposition Zposition Xrotation Yrotation Zrotation
											JOINT mixamorig:RightHandRing4
											{
												OFFSET -2.638809 -0.000015 0.000941
												CHANNELS 6 Xposition Yposition Zposition Xrotation Yrotation Zrotation
												End Site
												{
													OFFSET -263.880371 0.000000 0.516020
												}
											}
										}
									}
								}
								JOINT mixamorig:RightHandPinky1
								{
									OFFSET -8.076683 -0.486710 -3.806280
									CHANNELS 6 Xposition Yposition Zposition Xrotation Yrotation Zrotation
									JOINT mixamorig:RightHandPinky2
									{
										OFFSET -3.600014 -0.000015 -0.003747
										CHANNELS 6 Xposition Yposition Zposition Xrotation Yrotation Zrotation
										JOINT mixamorig:RightHandPinky3
										{
											OFFSET -2.099983 0.000000 -0.005739
											CHANNELS 6 Xposition Yposition Zposition Xrotation Yrotation Zrotation
											JOINT mixamorig:RightHandPinky4
											{
												OFFSET -2.115768 -0.000031 -0.003680
												CHANNELS 6 Xposition Yposition Zposition Xrotation Yrotation Zrotation
												End Site
												{
													OFFSET -211.577087 0.000000 -0.350686
												}
											}
										}
									}
								}
							}
						}
					}
				}
				JOINT mixamorig:LeftShoulder
				{
					OFFSET 4.570447 11.014725 -2.160855
					CHANNELS 6 Xposition Yposition Zposition Xrotation Yrotation Zrotation
					JOINT mixamorig:LeftArm
					{
						OFFSET 10.592371 -0.524597 -2.232119
						CHANNELS 6 Xposition Yposition Zposition Xrotation Yrotation Zrotation
						JOINT mixamorig:LeftForeArm
						{
							OFFSET 27.841532 -0.000031 0.000026
							CHANNELS 6 Xposition Yposition Zposition Xrotation Yrotation Zrotation
							JOINT mixamorig:LeftHand
							{
								OFFSET 28.328846 -0.000061 0.000022
								CHANNELS 6 Xposition Yposition Zposition Xrotation Yrotation Zrotation
								JOINT mixamorig:LeftHandThumb1
								{
									OFFSET 2.466141 -1.576172 2.681732
									CHANNELS 6 Xposition Yposition Zposition Xrotation Yrotation Zrotation
									JOINT mixamorig:LeftHandThumb2
									{
										OFFSET 3.217812 -1.872070 1.916482
										CHANNELS 6 Xposition Yposition Zposition Xrotation Yrotation Zrotation
										JOINT mixamorig:LeftHandThumb3
										{
											OFFSET 2.656029 -1.528778 1.514513
											CHANNELS 6 Xposition Yposition Zposition Xrotation Yrotation Zrotation
											JOINT mixamorig:LeftHandThumb4
											{
												OFFSET 2.020889 -1.154053 1.115139
												CHANNELS 6 Xposition Yposition Zposition Xrotation Yrotation Zrotation
												End Site
												{
													OFFSET 190.885437 -115.081749 130.048782
												}
											}
										}
									}
								}
								JOINT mixamorig:LeftHandIndex1
								{
									OFFSET 9.109314 -0.518021 2.259871
									CHANNELS 6 Xposition Yposition Zposition Xrotation Yrotation Zrotation
									JOINT mixamorig:LeftHandIndex2
									{
										OFFSET 3.699989 0.000000 -0.000322
										CHANNELS 6 Xposition Yposition Zposition Xrotation Yrotation Zrotation
										JOINT mixamorig:LeftHandIndex3
										{
											OFFSET 2.850006 0.000000 0.000352
											CHANNELS 6 Xposition Yposition Zposition Xrotation Yrotation Zrotation
											JOINT mixamorig:LeftHandIndex4
											{
												OFFSET 2.774864 -0.000031 -0.000027
												CHANNELS 6 Xposition Yposition Zposition Xrotation Yrotation Zrotation
												End Site
												{
													OFFSET 277.486267 0.000000 -0.009857
												}
											}
										}
									}
								}
								JOINT mixamorig:LeftHandMiddle1
								{
									OFFSET 9.533394 0.000061 0.000044
									CHANNELS 6 Xposition Yposition Zposition Xrotation Yrotation Zrotation
									JOINT mixamorig:LeftHandMiddle2
									{
										OFFSET 3.699989 -0.000015 -0.000231
										CHANNELS 6 Xposition Yposition Zposition Xrotation Yrotation Zrotation
										JOINT mixamorig:LeftHandMiddle3
										{
											OFFSET 2.949997 -0.000015 -0.000059
											CHANNELS 6 Xposition Yposition Zposition Xrotation Yrotation Zrotation
											JOINT mixamorig:LeftHandMiddle4
											{
												OFFSET 2.952896 0.000031 0.000063
												CHANNELS 6 Xposition Yposition Zposition Xrotation Yrotation Zrotation
												End Site
												{
													OFFSET 295.289337 0.000000 0.022810
												}
											}
										}
									}
								}
								JOINT mixamorig:LeftHandRing1
								{
									OFFSET 9.104523 -0.042999 -1.865074
									CHANNELS 6 Xposition Yposition Zposition Xrotation Yrotation Zrotation
									JOINT mixamorig:LeftHandRing2
									{
										OFFSET 3.150009 -0.000031 0.000043
										CHANNELS 6 Xposition Yposition Zposition Xrotation Yrotation Zrotation
										JOINT mixamorig:LeftHandRing3
										{
											OFFSET 2.949982 -0.000015 0.000040
											CHANNELS 6 Xposition Yposition Zposition Xrotation Yrotation Zrotation
											JOINT mixamorig:LeftHandRing4
											{
												OFFSET 2.644348 0.000000 0.000057
												CHANNELS 6 Xposition Yposition Zposition Xrotation Yrotation Zrotation
												End Site
												{
													OFFSET 264.434631 0.000000 0.012105
												}
											}
										}
									}
								}
								JOINT mixamorig:LeftHandPinky1
								{
									OFFSET 8.077789 -0.486847 -3.806259
									CHANNELS 6 Xposition Yposition Zposition Xrotation Yrotation Zrotation
									JOINT mixamorig:LeftHandPinky2
									{
										OFFSET 3.599953 0.000031 0.014727
										CHANNELS 6 Xposition Yposition Zposition Xrotation Yrotation Zrotation
										JOINT mixamorig:LeftHandPinky3
										{
											OFFSET 2.100021 0.000015 0.007705
											CHANNELS 6 Xposition Yposition Zposition Xrotation Yrotation Zrotation
											JOINT mixamorig:LeftHandPinky4
											{
												OFFSET 2.125504 0.000031 0.007517
												CHANNELS 6 Xposition Yposition Zposition Xrotation Yrotation Zrotation
												End Site
												{
													OFFSET 212.550781 0.000000 0.625752
												}
											}
										}
									}
								}
							}
						}
					}
				}
			}
		}
	}
	JOINT mixamorig:RightUpLeg
	{
		OFFSET -8.207787 -6.751648 -1.599560
		CHANNELS 6 Xposition Yposition Zposition Xrotation Yrotation Zrotation
		JOINT mixamorig:RightLeg
		{
			OFFSET -0.000002 -44.370117 0.345942
			CHANNELS 6 Xposition Yposition Zposition Xrotation Yrotation Zrotation
			JOINT mixamorig:RightFoot
			{
				OFFSET 0.000003 -44.423679 -3.043532
				CHANNELS 6 Xposition Yposition Zposition Xrotation Yrotation Zrotation
				JOINT mixamorig:RightToeBase
				{
					OFFSET -0.000002 -8.728671 10.710558
					CHANNELS 6 Xposition Yposition Zposition Xrotation Yrotation Zrotation
					JOINT mixamorig:RightToe_End
					{
						OFFSET -0.000001 -0.000679 9.278119
						CHANNELS 6 Xposition Yposition Zposition Xrotation Yrotation Zrotation
						End Site
						{
							OFFSET 0.000000 -0.067690 927.812134
						}
					}
				}
			}
		}
	}
	JOINT mixamorig:LeftUpLeg
	{
		OFFSET 8.207793 -6.751686 -1.599556
		CHANNELS 6 Xposition Yposition Zposition Xrotation Yrotation Zrotation
		JOINT mixamorig:LeftLeg
		{
			OFFSET -0.000004 -44.370014 0.346954
			CHANNELS 6 Xposition Yposition Zposition Xrotation Yrotation Zrotation
			JOINT mixamorig:LeftFoot
			{
				OFFSET -0.000001 -44.423672 -3.044401
				CHANNELS 6 Xposition Yposition Zposition Xrotation Yrotation Zrotation
				JOINT mixamorig:LeftToeBase
				{
					OFFSET -0.000002 -8.728669 10.710558
					CHANNELS 6 Xposition Yposition Zposition Xrotation Yrotation Zrotation
					JOINT mixamorig:LeftToe_End
					{
						OFFSET -0.000003 -0.000679 9.278133
						CHANNELS 6 Xposition Yposition Zposition Xrotation Yrotation Zrotation
						End Site
						{
							OFFSET 0.000000 -0.068021 927.813477
						}
					}
				}
			}
		}
	}
}
MOTION
Frames: 3
Frame Time: 0.033333
0.000006 104.270477 1.554256 0.000010 0.000003 -0.000113 -0.000005 10.181587 0.131522 0.000001 -0.000003 0.000084 -0.000000 9.893967 -1.470711 0.000001 0.000000 -0.000000 -0.000000 9.220802 -1.370642 0.000000 -0.000000 -0.000000 0.000001 16.740433 -2.049030 0.000000 -0.000000 -0.000000 0.000000 9.617859 1.685014 0.000000 0.000000 0.000000 0.000002 22.037384 7.501101 0.000000 -0.000000 0.000000 -4.569968 11.014880 -2.160881 0.000008 0.000001 -0.000038 -10.592871 -0.524790 -2.231874 75.592012 35.388904 -27.795438 -27.841520 -0.000004 0.000559 -47.859494 107.703703 62.555148 -28.328821 0.000009 0.000035 -0.000321 -0.000044 0.000007 -2.464419 -1.573769 2.682324 -49.357327 -164.432802 -13.768467 -3.215229 -1.872494 1.924611 145.061019 33.409829 35.615673 -2.654963 -1.527840 1.513064 149.790720 28.217525 -21.080187 -2.018827 -1.151999 1.108053 0.000001 0.000000 0.000005 -9.108373 -0.517560 2.260157 105.859511 15.515296 -20.504803 -3.700070 0.000319 0.001561 102.907755 13.734370 -17.161262 -2.850084 0.000358 -0.000225 101.252609 11.705583 -14.238877 -2.772180 -0.000001 -0.000024 -0.000001 0.000002 0.000000 -9.532582 0.000272 0.000256 95.634683 15.699810 -17.457677 -3.700047 0.000323 0.003983 97.013145 12.025554 -13.474997 -2.950054 0.000324 -0.001779 98.515247 11.887418 -13.774349 -2.946622 0.000001 -0.000155 0.000001 0.000000 -0.000001 -9.103710 -0.042768 -1.864858 92.725712 18.521957 -19.360642 -3.379322 0.000337 -0.000805 94.428772 8.453236 -9.148950 -2.889747 0.000351 0.000635 99.978847 6.582902 -7.892642 -2.638809 -0.000012 0.000941 0.000001 0.000003 -0.000000 -8.076755 -0.486406 -3.806020 84.865353 20.542540 -18.669731 -3.600033 0.000270 -0.003539 86.438530 8.384315 -7.546705 -2.100012 0.000328 -0.005500 88.958310 4.173477 -3.887498 -2.115760 -0.000036 -0.003679 -0.000005 0.000003 -0.000004 4.570446 11.014691 -2.160851 -0.000018 0.000010 -0.000021 10.592512 -0.524547 -2.232380 57.854871 -65.193766 38.926419 27.841749 -0.000056 -0.000097 224.225384 -73.524787 237.081658 28.328833 -0.000028 0.000025 0.000020 -0.000088 -0.000000 2.465865 -1.576114 2.681839 -238.144572 30.858163 211.704978 3.217655 -1.872065 1.916525 175.310698 56.244395 495.007360 2.655960 -1.528800 1.514626 4.776474 -224.746897 297.516128 2.020895 -1.154081 1.115135 0.000001 0.000003 0.000004 9.109118 -0.517709 2.260021 -156.156252 -13.673413 -59.166678 3.699773 0.000298 -0.000157 -155.212552 -16.414618 -66.570849 2.849800 0.000338 0.000505 -156.244662 -13.905580 -60.209347 2.774868 -0.000032 -0.000023 -0.000003 -0.000002 0.000002 9.533221 0.000388 0.000197 -156.743662 -11.788679 -53.272327 3.699775 0.000290 -0.000075 -156.354778 -15.268275 -65.262806 2.949809 0.000333 0.000100 -156.713541 -12.085297 -54.385835 2.952875 -0.000029 0.000059 -0.000001 0.000000 0.000002 9.104368 -0.042682 -1.864923 -156.114724 -10.698007 -47.758762 3.149824 0.000404 0.000213 -156.321296 -9.731484 -44.206846 2.949834 0.000411 0.000205 -156.646291 -7.616953 -35.711948 2.644328 0.000063 0.000044 -0.000001 0.000002 0.000002 8.077661 -0.486534 -3.806096 -150.775798 -9.016972 -34.746333 3.599882 0.000418 0.014902 -151.665758 -4.502088 -19.040908 2.099925 0.000416 0.007873 -153.058337 -4.669414 -20.641648 2.125503 -0.000032 0.007509 0.000000 -0.000001 0.000000 -8.207786 -6.751667 -1.599560 -0.077001 -0.000003 0.000080 -0.000002 -44.370110 0.345938 0.153719 -0.000000 -0.000000 0.000000 -44.423679 -3.043532 -0.076700 0.000000 -0.000002 -0.000006 -8.728667 10.710559 -0.000009 -0.000000 -0.000000 -0.000001 -0.000679 9.278123 0.000000 -0.000000 -0.000000 8.207792 -6.751710 -1.599556 -0.074518 -0.000003 0.000081 -0.000002 -44.370014 0.346960 0.148822 0.000002 0.000000 -0.000001 -44.423664 -3.044403 -0.074314 0.000000 -0.000002 -0.000004 -8.728671 10.710558 0.000007 -0.000000 -0.000000 0.000000 -0.000680 9.278137 -0.000000 0.000000 -0.000001 
0.000006 104.270477 1.554256 0.000010 0.000003 -0.000113 -0.000005 10.181587 0.131522 0.000001 -0.000003 0.000084 -0.000000 9.893967 -1.470711 0.000001 0.000000 -0.000000 -0.000000 9.220802 -1.370642 0.000000 -0.000000 -0.000000 0.000001 16.740433 -2.049030 0.000000 -0.000000 -0.000000 0.000000 9.617859 1.685014 0.000000 0.000000 0.000000 0.000002 22.037384 7.501101 0.000000 -0.000000 0.000000 -4.569968 11.014880 -2.160881 0.000008 0.000001 -0.000038 -10.592864 -0.524788 -2.231867 75.526968 36.085057 -28.324516 -27.841511 0.000010 0.000563 -47.790123 107.536015 62.316173 -28.328821 -0.000004 0.000033 -0.000321 -0.000045 0.000010 -2.464409 -1.573762 2.682310 -48.942468 -163.757556 -12.680373 -3.215230 -1.872485 1.924613 144.540750 33.210077 35.590176 -2.654961 -1.527841 1.513060 148.911976 28.395361 -19.969984 -2.018815 -1.151997 1.108066 -0.000004 0.000005 0.000007 -9.108377 -0.517558 2.260151 105.977379 14.810802 -19.625119 -3.700050 0.000315 0.001546 103.364497 12.864527 -16.208551 -2.850106 0.000348 -0.000232 102.033963 11.091929 -13.682115 -2.772153 0.000001 -0.000012 -0.000001 0.000000 -0.000001 -9.532587 0.000272 0.000245 95.309368 15.150773 -16.758851 -3.700054 0.000324 0.003982 96.672394 12.046262 -13.418445 -2.950051 0.000329 -0.001797 98.623950 11.801801 -13.701349 -2.946626 0.000003 -0.000152 0.000001 -0.000000 0.000001 -9.103701 -0.042771 -1.864879 92.648982 18.726654 -19.548976 -3.379334 0.000325 -0.000803 93.547651 8.937658 -9.524671 -2.889762 0.000372 0.000643 99.363120 6.601137 -7.828796 -2.638803 -0.000005 0.000942 0.000000 0.000002 0.000001 -8.076766 -0.486395 -3.806019 84.709850 20.621357 -18.691958 -3.600038 0.000284 -0.003534 85.399617 8.346256 -7.376076 -2.099995 0.000318 -0.005511 88.207563 3.957469 -3.628210 -2.115772 -0.000043 -0.003680 -0.000002 0.000003 -0.000002 4.570446 11.014691 -2.160851 -0.000018 0.000010 -0.000021 10.592510 -0.524566 -2.232378 57.071486 -65.352500 38.454774 27.841755 -0.000051 -0.000098 223.950674 -73.546855 236.731570 28.328833 -0.000028 0.000019 0.000022 -0.000089 -0.000000 2.465872 -1.576108 2.681851 -238.299262 31.027616 211.962449 3.217661 -1.872071 1.916514 173.863749 55.575081 496.473118 2.655968 -1.528792 1.514622 7.477165 -224.113765 293.685157 2.020884 -1.154069 1.115151 0.000002 0.000006 0.000002 9.109126 -0.517701 2.260025 -156.017913 -13.578933 -58.531026 3.699776 0.000292 -0.000151 -155.138321 -16.752454 -67.497050 2.849804 0.000350 0.000519 -156.055998 -14.164947 -60.734008 2.774877 -0.000030 -0.000031 -0.000000 0.000000 0.000001 9.533237 0.000394 0.000197 -156.350721 -11.730586 -52.259014 3.699795 0.000311 -0.000072 -156.241438 -15.207655 -64.798066 2.949816 0.000320 0.000100 -157.006501 -12.370051 -56.102522 2.952878 -0.000033 0.000059 0.000002 -0.000001 -0.000002 9.104380 -0.042687 -1.864919 -155.467823 -10.671425 -46.497589 3.149848 0.000396 0.000205 -156.053102 -9.911894 -44.481699 2.949838 0.000410 0.000203 -157.111795 -8.139933 -38.735956 2.644326 0.000032 0.000066 0.000001 -0.000000 -0.000000 8.077663 -0.486521 -3.806088 -149.931026 -8.895886 -33.389513 3.599881 0.000425 0.014901 -151.335668 -4.784031 -19.877073 2.099915 0.000425 0.007866 -153.260907 -5.215138 -22.980578 2.125497 0.000001 0.007528 -0.000001 0.000002 -0.000000 -8.207786 -6.751667 -1.599560 -0.077001 -0.000003 0.000080 -0.000002 -44.370110 0.345938 0.153719 -0.000000 -0.000000 0.000000 -44.423679 -3.043532 -0.076700 0.000000 -0.000002 -0.000006 -8.728667 10.710559 -0.000009 -0.000000 -0.000000 -0.000001 -0.000679 9.278123 0.000000 -0.000000 -0.000000 8.207792 -6.751710 -1.599556 -0.074518 -0.000003 0.000081 -0.000002 -44.370014 0.346960 0.148822 0.000002 0.000000 -0.000001 -44.423664 -3.044403 -0.074314 0.000000 -0.000002 -0.000004 -8.728671 10.710558 0.000007 -0.000000 -0.000000 0.000000 -0.000680 9.278137 -0.000000 0.000000 -0.000001 
0.000006 104.270477 1.554256 0.000010 0.000003 -0.000113 -0.000005 10.181587 0.131522 0.000001 -0.000003 0.000084 -0.000000 9.893967 -1.470711 0.000001 0.000000 -0.000000 -0.000000 9.220802 -1.370642 0.000000 -0.000000 -0.000000 0.000001 16.740433 -2.049030 0.000000 -0.000000 -0.000000 0.000000 9.617859 1.685014 0.000000 0.000000 0.000000 0.000002 22.037384 7.501101 0.000000 -0.000000 0.000000 -4.569968 11.014880 -2.160881 0.000008 0.000001 -0.000038 -10.592863 -0.524792 -2.231864 75.568974 37.903858 -29.814124 -27.841511 0.000009 0.000557 -47.794829 106.728201 61.575795 -28.328835 0.000022 0.000031 -0.000324 -0.000043 0.000006 -2.464402 -1.573741 2.682316 -49.955915 -165.412784 -15.392750 -3.215232 -1.872469 1.924582 144.094042 33.143134 36.672580 -2.654966 -1.527841 1.513045 149.168927 28.607609 -17.840787 -2.018815 -1.152009 1.108063 -0.000002 0.000000 0.000004 -9.108357 -0.517550 2.260146 105.876600 14.542463 -19.238787 -3.700067 0.000322 0.001548 103.466383 12.886658 -16.265645 -2.850085 0.000369 -0.000228 101.832568 11.074289 -13.611879 -2.772154 -0.000000 -0.000017 -0.000000 0.000001 -0.000001 -9.532576 0.000274 0.000243 95.473743 14.796997 -16.418098 -3.700066 0.000315 0.003989 96.939516 12.050982 -13.486302 -2.950057 0.000332 -0.001787 98.342307 11.813133 -13.647128 -2.946632 0.000001 -0.000159 -0.000001 0.000003 -0.000000 -9.103688 -0.042766 -1.864879 92.080246 18.044714 -18.653856 -3.379341 0.000325 -0.000807 93.555259 8.960982 -9.550739 -2.889760 0.000362 0.000645 99.153248 6.771000 -7.999167 -2.638809 -0.000019 0.000940 0.000003 -0.000001 0.000000 -8.076743 -0.486391 -3.806029 83.864498 19.674964 -17.567494 -3.600042 0.000280 -0.003532 85.660927 8.114884 -7.196197 -2.099988 0.000330 -0.005531 88.514313 3.874305 -3.566903 -2.115773 -0.000041 -0.003681 -0.000003 0.000001 -0.000001 4.570446 11.014691 -2.160851 -0.000018 0.000010 -0.000021 10.592512 -0.524547 -2.232378 56.678388 -66.002215 38.606538 27.841757 -0.000069 -0.000102 223.699569 -73.827774 236.185373 28.328829 -0.000029 0.000024 0.000020 -0.000088 0.000001 2.465884 -1.576107 2.681846 -237.040349 30.077086 209.713705 3.217680 -1.872067 1.916541 176.671941 54.813071 492.465054 2.655988 -1.528790 1.514620 15.327477 -222.934178 283.441075 2.020895 -1.154066 1.115146 -0.000000 0.000003 0.000004 9.109136 -0.517672 2.260033 -155.537969 -13.507724 -57.281788 3.699772 0.000289 -0.000154 -154.863543 -17.230894 -68.411011 2.849821 0.000352 0.000512 -155.275963 -14.701045 -60.959309 2.774881 -0.000027 -0.000023 0.000001 -0.000001 -0.000001 9.533228 0.000412 0.000189 -156.888626 -11.750643 -53.418151 3.699786 0.000299 -0.000071 -156.536010 -15.538918 -66.607431 2.949815 0.000324 0.000102 -156.338345 -12.765180 -56.209233 2.952866 -0.000031 0.000052 0.000002 0.000000 -0.000000 9.104383 -0.042634 -1.864911 -154.802672 -10.636674 -45.227542 3.149847 0.000393 0.000210 -155.216308 -9.920803 -43.113722 2.949826 0.000418 0.000202 -155.879820 -8.370600 -37.817163 2.644316 0.000046 0.000064 -0.000005 0.000002 0.000000 8.077691 -0.486511 -3.806083 -148.749403 -7.983323 -29.150339 3.599888 0.000429 0.014894 -150.489449 -3.891464 -16.037202 2.099923 0.000428 0.007875 -151.928064 -4.909814 -20.726383 2.125498 0.000000 0.007494 0.000001 -0.000002 -0.000001 -8.207786 -6.751667 -1.599560 -0.077001 -0.000003 0.000080 -0.000002 -44.370110 0.345938 0.153719 -0.000000 -0.000000 0.000000 -44.423679 -3.043532 -0.076700 0.000000 -0.000002 -0.000006 -8.728667 10.710559 -0.000009 -0.000000 -0.000000 -0.000001 -0.000679 9.278123 0.000000 -0.000000 -0.000000 8.207792 -6.751710 -1.599556 -0.074518 -0.000003 0.000081 -0.000002 -44.370014 0.346960 0.148822 0.000002 0.000000 -0.000001 -44.423664 -3.044403 -0.074314 0.000000 -0.000002 -0.000004 -8.728671 10.710558 0.000007 -0.000000 -0.000000 0.000000 -0.000680 9.278137 -0.000000 0.000000 -0.000001 
